<svg width="33" height="32" viewBox="0 0 33 32" fill="none" xmlns="http://www.w3.org/2000/svg">
<g id="Twitter" clip-path="url(#clip0_14_22)">
<path id="Vector" d="M10.552 30C22.628 30 29.234 19.994 29.234 11.332C29.2367 11.0507 29.2327 10.7694 29.222 10.488C30.5077 9.55653 31.6176 8.40394 32.5 7.08404C31.2982 7.61259 30.0253 7.96165 28.722 8.12004C30.0952 7.29946 31.1236 6.00807 31.616 4.48604C30.3265 5.25149 28.9144 5.78807 27.442 6.07204C26.4524 5.01809 25.1428 4.31988 23.7162 4.08556C22.2895 3.85124 20.8254 4.09389 19.5507 4.77592C18.2759 5.45795 17.2616 6.5413 16.6649 7.85816C16.0682 9.17503 15.9224 10.6519 16.25 12.06C13.6394 11.9298 11.0853 11.2519 8.75366 10.0704C6.42202 8.88888 4.36495 7.2302 2.716 5.20204C1.87916 6.64833 1.6239 8.35881 2.00201 9.98641C2.38013 11.614 3.36329 13.0368 4.752 13.966C3.71082 13.9324 2.69239 13.6528 1.78 13.15V13.24C1.78255 14.7548 2.30764 16.2223 3.26665 17.3948C4.22565 18.5674 5.55984 19.3731 7.044 19.676C6.48054 19.8313 5.89846 19.9087 5.314 19.906C4.90184 19.9103 4.49033 19.8721 4.086 19.792C4.50479 21.0966 5.32155 22.2374 6.42167 23.0541C7.52179 23.8709 8.85004 24.3226 10.22 24.346C7.89221 26.172 5.01849 27.163 2.06 27.16C1.5386 27.164 1.01749 27.1339 0.5 27.07C3.50284 28.985 6.99053 30.0016 10.552 30Z" fill="#999999"/>
</g>
<defs>
<clipPath id="clip0_14_22">
<rect width="32" height="32" fill="white" transform="translate(0.5)"/>
</clipPath>
</defs>
</svg>
